<svg width="450" height="315" viewBox="0 0 450 315" fill="none" xmlns="http://www.w3.org/2000/svg">
<path d="M100.664 13C76.6644 2.00003 -8.33562 32.5 0.664376 43C9.66438 53.5 29.6644 56.5 33.1644 70.5C36.6644 84.5 90.1957 314.358 100.664 314C111.133 313.642 238.946 321.122 235.164 300C231.382 278.878 124.664 24 100.664 13Z" fill="#162830"/>
<path fill-rule="evenodd" clip-rule="evenodd" d="M445.664 15.5C424.664 8 387.664 0 359.164 0C345.134 15.2858 328.164 137.5 322.664 202C297.797 175.008 289.164 162.5 265.164 150C235.164 161.5 220.164 173.5 202.664 204L226.664 258.5L243.164 302C256.164 266.5 263.573 251.213 274.664 234C286.217 244.344 294.337 261.86 308.664 292H405.664C420.664 259.5 461.664 64.5 445.664 15.5Z" fill="#2BC2AB"/>
</svg>
